<svg viewBox="0 0 512 512" xmlns="http://www.w3.org/2000/svg" data-name="Layer 1" id="Layer_1"><title>down_arrow</title><path fill="#231f20" d="M208.47,329.74s.49-6.18.45,4.22l.19,8.32.49,6.13-.13,6.07s-1.3,1.73-15.57,5.2a28.23,28.23,0,0,1-13.43,3.48s-55.88-1.79-60.08-5.46c0,0,35,5.23,37.25,3.57,0,0-33.51-4.27-36.08-7.59,0,0,32.5,4.9,35.38.66,0,0-29.91-4.52-33.53-8.74,0,0,5.75,1.68,7.28,1.17L128,345.51l4.31.16,2.5,1s-6.76-2.9-7.22-4.38c0,0-3.07,1.76,9.09,1.11C136.7,343.39,165.49,353.62,208.47,329.74Z"></path><path fill="#231f20" d="M399.18,320.84s.52-7.74.5,5.28l.21,10.45.53,7.66-.16,7.61s-1.39,2.17-16.9,6.53a27.82,27.82,0,0,1-14.58,4.34s-60.67-2.26-65.23-6.83c0,0,38,6.56,40.44,4.46,0,0-36.36-5.35-39.17-9.51,0,0,35.3,6.14,38.43.82,0,0-32.47-5.66-36.4-10.94,0,0,6.24,2.1,7.89,1.47l-2.9-1.6,4.67.22,2.69,1.22s-7.31-3.64-7.82-5.49c0,0-3.34,2.22,9.88,1.38C321.28,337.92,352.52,350.76,399.18,320.84Z"></path><path fill="#231f20" d="M299.33,1.32s.61-4.47.58,3l.25,6,.61,4.42-.17,4.38s-1.64,1.24-19.78,3.75a57.66,57.66,0,0,1-17.06,2.5s-71-1.29-76.35-3.94c0,0,44.53,3.78,47.34,2.59,0,0-42.59-3.1-45.86-5.49,0,0,41.32,3.56,45,.49,0,0-38-3.27-42.61-6.3,0,0,7.3,1.21,9.24.85l-3.4-.92,5.47.13,3.17.71s-8.57-2.11-9.16-3.16c0,0-3.92,1.26,11.55.79C208.12,11.16,244.7,18.55,299.33,1.32Z"></path><path fill="#231f20" d="M281.69,11.13s-8.48-1.83,5.76-1.71l11.42-.74,8.37-1.83,8.32.56s2.39,4.8,7.14,58.23a255.26,255.26,0,0,1,4.76,50.21S325,324.93,320,340.63c0,0,7.17-131.11,4.9-139.37,0,0-5.88,125.38-10.43,135,0,0,6.73-121.6.93-132.43,0,0-6.19,111.94-12,125.49,0,0,2.31-21.48,1.6-27.22l-1.74,10,.24-16.12,1.34-9.31s-4,25.21-6,27c0,0,2.41,11.5,1.51-34C300.37,279.64,314.39,171.94,281.69,11.13Z"></path><path fill="#231f20" d="M174,15.11s-8.48-2.12,5.78-2l11.42-.85,8.37-2.1,8.32.61s.59,1.4,1.78,10.51c.61,4.54,1.35,11,2.24,20.23.23,2.31.45,4.77.69,7.42l0,.5,0,.26,0,.13v.06c-63.74,0-17.67,0-31.89,0v0l-.08-1-.19-2.09-.37-4.4c-.28-3-.55-6.25-.82-9.69l-.44-5.31-.09-1.37-.07-.69,0-.35,0-.18c16.11,0-36.05,0,36.09,0l0,0v.09l.22,2.86a340.54,340.54,0,0,1,4.75,58.06s-2.45,241.7-7.47,259.86c0,0,7.18-151.56,4.9-161.11,0,0-5.87,144.94-10.41,156,0,0,6.72-140.57.91-153.07,0,0-6.18,129.4-12,145,0,0,2.31-24.81,1.61-31.46l-1.73,11.56.24-18.62,1.32-10.76s-4,29.17-6,31.2c0,0,2.42,13.3,1.51-39.34,0,0,3.5-31.12,2.92-85.48-.29-27.18-1.61-60.17-4.89-98-1.65-18.91-3.78-39-6.51-60.21l-.53-4-.26-2-.08-.49v-.13c-24,0,32.68-.13,26.85-.06l0,.26.13,1,1.14,8.1,1.17,8.2.61,4.14.31,2.07.17,1,0,.26c-15.2,0,34,.13-34.06.09l0-.12-.08-.52Q177,32.55,174,15.11Z"></path><path fill="#231f20" d="M105.07,374.18s-7.4,5.92,3.76-5.53l8.59-9.62,5.73-7.71,6.72-6.46c-.07,0,4.14.56,31.25,24.74a106.18,106.18,0,0,1,25.56,22.23c.09-.15,21.93,27.72,45.49,53.94,23.38,26.89,49.88,48.62,52.78,53-.06.2-15.71-12.27-30.56-28-15-15.45-29.5-33.34-32.23-34.33,0,0,12.81,16.38,26.74,32.29,13.78,16.23,29.46,30.66,30.91,34.38-.09.25-14.95-12.07-29.53-26.61-14.7-14.33-29.37-30.65-34-30.75,0,0,11.46,15,24.23,30.28,12.59,15.53,27.43,30.5,29.65,36,0-.06-10.34-10.49-13.6-12.35l4.18,5.82-8.31-6.92-3.94-5.23c-.16.12,10.58,14.41,10.49,17.1.17-.24,7.23,2.86-17-16,0,0-11.6-14.9-33.84-37.47C185.85,434.55,152.75,402.37,105.07,374.18Z"></path><path fill="#231f20" d="M392.86,335.46s-2.44-8.69,3.55,4.93l5.27,10.66,4.45,7.51,3.19,8.11c.25.62-2,1.81-22,23.64a108.26,108.26,0,0,1-17.5,22.78c-.08-.23-21.3,20.67-43,44.58-21.61,23.75-45.58,48.78-51.07,50.39,1,.12,57.39-55.52,58.69-60.39.08-.49-52.78,53.39-60.77,54.35.7.24,53-51.22,52.75-59.92,0-.34-48,47.11-57.89,48.76,0,0,10.27-8,12-11.12L275.27,483l6.51-7.17,4.61-3.31s-12.82,8.7-15,8c0-.06-2.68,7,14.39-14.4,0,0,13-10,31-31.84,9.06-10.89,19.3-24.72,31-41.33C359.93,376.57,371.14,356.72,392.86,335.46Z"></path></svg>