<svg xmlns="http://www.w3.org/2000/svg" viewBox="0 0 24 30" fill="none" x="0px" y="0px"><path fill-rule="evenodd" clip-rule="evenodd" d="M18 3H6C4.34315 3 3 4.34315 3 6V18C3 19.6569 4.34315 21 6 21H18C19.6569 21 21 19.6569 21 18V6C21 4.34315 19.6569 3 18 3ZM6 2C3.79086 2 2 3.79086 2 6V18C2 20.2091 3.79086 22 6 22H18C20.2091 22 22 20.2091 22 18V6C22 3.79086 20.2091 2 18 2H6Z" fill="black"/><path fill-rule="evenodd" clip-rule="evenodd" d="M4.64645 8.64645C4.84171 8.45118 5.15829 8.45118 5.35355 8.64645L8.17678 11.4697C8.46967 11.7626 8.46967 12.2374 8.17678 12.5303L5.35355 15.3536C5.15829 15.5488 4.84171 15.5488 4.64645 15.3536C4.45118 15.1583 4.45118 14.8417 4.64645 14.6464L7.29289 12L4.64645 9.35355C4.45118 9.15829 4.45118 8.84171 4.64645 8.64645Z" fill="black"/><path fill-rule="evenodd" clip-rule="evenodd" d="M8.5 16C8.5 15.7239 8.72386 15.5 9 15.5H15C15.2761 15.5 15.5 15.7239 15.5 16C15.5 16.2761 15.2761 16.5 15 16.5H9C8.72386 16.5 8.5 16.2761 8.5 16Z" fill="black"/><text x="0" y="39" fill="#000000" font-size="5px" font-weight="bold" font-family="'Helvetica Neue', Helvetica, Arial-Unicode, Arial, Sans-serif">Created by Billy Sweetman</text><text x="0" y="44" fill="#000000" font-size="5px" font-weight="bold" font-family="'Helvetica Neue', Helvetica, Arial-Unicode, Arial, Sans-serif">from the Noun Project</text></svg>