<svg xmlns="http://www.w3.org/2000/svg" version="1.1" viewBox="-5.0 -10.0 110.0 135.0">
 <g>
  <path d="m22.223 2.8281c-0.70703-0.20312-1.4141 0.30469-1.6172 1.0117-1.2109 5.25-3.4336 9.6953-5.8594 14.344-7.2695 14.039-15.555 30-0.10156 77.172 0.20312 0.50391 0.70703 0.91016 1.2109 0.91016 0.10156 0 0.30469 0 0.40234-0.10156 0.70703-0.20312 1.1094-1.0117 0.80859-1.6172-15.051-46.16-7.0703-61.516 0-75.152 2.5234-4.8477 4.8477-9.3945 6.1602-14.949 0.10547-0.70703-0.29687-1.4141-1.0039-1.6172z"/>
  <path d="m86.262 18.184c-2.4258-4.6445-4.6445-9.0898-5.9609-14.344-0.20312-0.70703-0.91016-1.1094-1.6172-1.0117-0.70703 0.20312-1.1094 0.91016-1.0117 1.6172 1.3125 5.5547 3.6367 10.102 6.1602 14.949 7.0703 13.637 15.051 28.988 0 75.152-0.20312 0.70703 0.20312 1.4141 0.80859 1.6172 0.10156 0 0.30469 0.10156 0.40234 0.10156 0.50391 0 1.1094-0.30469 1.2109-0.91016 15.562-47.172 7.2812-63.133 0.007813-77.172z"/>
  <path d="m75.254 70.305c-8.6875 0.80859-15.758-2.2227-19.797-8.5859-2.2227-3.4336-3.4336-7.5742-3.5352-12.02v-1.5156c0.10156-5.5547 1.8164-11.516 4.9492-17.172 0.40234-0.60547 0.10156-1.4141-0.50391-1.8164-0.60547-0.40234-1.4141-0.10156-1.8164 0.50391-1.8164 3.1328-3.1328 6.4648-4.0391 9.6953-0.91016-3.2305-2.2227-6.4648-4.0391-9.6953-0.40234-0.60547-1.1094-0.80859-1.8164-0.50391-0.60547 0.40234-0.80859 1.1094-0.50391 1.8164 3.2305 5.6562 4.8477 11.617 4.9492 17.172v1.5156c-0.10156 4.4453-1.3125 8.5859-3.5352 12.02-4.0391 6.2617-11.109 9.293-19.797 8.5859-0.70703-0.10156-1.3125 0.50391-1.4141 1.2109-0.10156 0.70703 0.50391 1.3125 1.2109 1.4141 1.0117 0.10156 1.918 0.10156 2.9297 0.10156 7.0703 0 13.031-2.4258 17.172-7.0703 1.918 5.8594 1.3125 15.859 0.70703 25.656-0.10156 1.8164-0.20312 3.6367-0.30469 5.4531 0 0.70703 0.50391 1.3125 1.2109 1.4141h0.10156c0.70703 0 1.3125-0.50391 1.3125-1.2109 0.10156-1.8164 0.20313-3.6367 0.30469-5.4531 0.79688-11.316 1.5039-22.125-1.3242-28.184 0.10156-0.10156 0.20312-0.30469 0.30469-0.40234 1.1094-1.7188 2.0195-3.6367 2.625-5.6562 0.60547 1.7188 1.3125 3.4336 2.2227 4.9492-0.20312 0.10156-0.40234 0.30469-0.50391 0.50391-3.1328 6.0625-2.4258 17.07-1.7188 28.789 0.10156 1.8164 0.20312 3.6367 0.30469 5.4531 0 0.70703 0.60547 1.2109 1.3125 1.2109h0.10156c0.70703 0 1.3125-0.70703 1.2109-1.4141-0.10156-1.8164-0.20312-3.6367-0.30469-5.4531-0.70703-10.402-1.3125-21.211 1.1094-26.77 4.2422 5.3555 10.504 8.1836 18.184 8.1836 0.91016 0 1.918 0 2.9297-0.10156 0.70703-0.10156 1.2109-0.70703 1.2109-1.4141-0.097656-0.70703-0.70312-1.3125-1.4102-1.2109z"/>
 </g>
<text x="0.0" y="117.5" font-size="5.0" font-weight="bold" font-family="Arbeit Regular, Helvetica, Arial-Unicode, Arial, Sans-serif" fill="#000000">Created by Mapps</text><text x="0.0" y="122.5" font-size="5.0" font-weight="bold" font-family="Arbeit Regular, Helvetica, Arial-Unicode, Arial, Sans-serif" fill="#000000">from Noun Project</text></svg>